<svg xmlns="http://www.w3.org/2000/svg" xmlns:xlink="http://www.w3.org/1999/xlink" width="500" zoomAndPan="magnify" viewBox="0 0 375 374.999991" height="500" preserveAspectRatio="xMidYMid meet" version="1.0"><defs><g/><clipPath id="0e01a585b6"><path d="M 147.175781 121.71875 L 228.175781 121.71875 L 228.175781 214.71875 L 147.175781 214.71875 Z M 147.175781 121.71875 " clip-rule="nonzero"/></clipPath></defs><g fill="#1b1f24" fill-opacity="1"><g transform="translate(70.938698, 272.279001)"><g><path d="M 19.511719 0 C 19.96875 0 20.207031 -0.238281 20.207031 -0.695312 L 20.207031 -5.214844 C 20.207031 -5.671875 19.96875 -5.910156 19.511719 -5.910156 L 9.527344 -5.910156 L 9.527344 -8.964844 L 18.152344 -8.964844 C 18.613281 -8.964844 18.847656 -9.222656 18.847656 -9.664062 L 18.847656 -13.839844 C 18.847656 -14.296875 18.613281 -14.535156 18.152344 -14.535156 L 9.527344 -14.535156 L 9.527344 -20.171875 L 19.511719 -20.171875 C 19.96875 -20.171875 20.207031 -20.410156 20.207031 -20.871094 L 20.207031 -25.386719 C 20.207031 -25.84375 19.96875 -26.082031 19.511719 -26.082031 L 3.277344 -26.082031 C 2.820312 -26.082031 2.582031 -25.84375 2.582031 -25.386719 L 2.582031 -0.695312 C 2.582031 -0.238281 2.820312 0 3.277344 0 Z M 19.511719 0 "/></g></g></g><g fill="#1b1f24" fill-opacity="1"><g transform="translate(99.42375, 272.279001)"><g><path d="M 14.367188 -26.082031 C 13.839844 -27.152344 13.007812 -27.152344 12.480469 -26.082031 L 0.527344 -0.832031 C 0.304688 -0.339844 0.527344 0 1.035156 0 L 7.167969 0 C 7.539062 0 7.828125 -0.203125 7.964844 -0.558594 L 8.8125 -2.75 L 18.035156 -2.75 L 18.882812 -0.558594 C 19.019531 -0.203125 19.308594 0 19.679688 0 L 25.8125 0 C 26.320312 0 26.542969 -0.339844 26.320312 -0.832031 Z M 13.433594 -14.519531 L 15.996094 -7.964844 L 10.851562 -7.964844 Z M 13.433594 -14.519531 "/></g></g></g><g fill="#1b1f24" fill-opacity="1"><g transform="translate(132.59454, 272.279001)"><g><path d="M 10.648438 0.695312 C 15.589844 0.695312 20.871094 -1.222656 20.871094 -7.300781 C 20.871094 -12.140625 17.492188 -14.230469 14.398438 -15.65625 C 11.308594 -17.082031 8.863281 -17.847656 8.863281 -19.410156 C 8.863281 -20.582031 10.019531 -20.972656 11.613281 -20.972656 C 13.175781 -20.972656 15.164062 -20.582031 16.863281 -20.003906 C 17.285156 -19.851562 17.59375 -20.039062 17.726562 -20.445312 L 18.984375 -24.726562 C 19.121094 -25.183594 18.984375 -25.453125 18.542969 -25.589844 C 16.167969 -26.320312 13.382812 -26.78125 11.378906 -26.78125 C 6.503906 -26.78125 1.800781 -24.621094 1.800781 -18.917969 C 1.800781 -14.839844 4.414062 -12.804688 7.4375 -11.242188 C 10.496094 -9.664062 13.773438 -8.726562 13.773438 -6.996094 C 13.773438 -5.671875 12.480469 -5.179688 10.679688 -5.179688 C 8.796875 -5.179688 6.300781 -5.707031 4.074219 -6.4375 C 3.652344 -6.570312 3.34375 -6.46875 3.191406 -6.011719 L 1.699219 -1.460938 C 1.5625 -1 1.730469 -0.730469 2.191406 -0.59375 C 5.347656 0.304688 8.066406 0.695312 10.648438 0.695312 Z M 10.648438 0.695312 "/></g></g></g><g fill="#1b1f24" fill-opacity="1"><g transform="translate(161.181456, 272.279001)"><g><path d="M 16.761719 0 C 17.21875 0 17.457031 -0.238281 17.457031 -0.695312 L 17.457031 -9.984375 L 27.613281 -25.25 C 27.933594 -25.691406 27.714844 -26.082031 27.152344 -26.082031 L 20.410156 -26.082031 C 20.039062 -26.082031 19.75 -25.914062 19.578125 -25.589844 L 14.007812 -16.234375 L 8.523438 -25.589844 C 8.355469 -25.914062 8.066406 -26.082031 7.691406 -26.082031 L 0.933594 -26.082031 C 0.390625 -26.082031 0.167969 -25.691406 0.492188 -25.25 L 10.496094 -9.984375 L 10.496094 -0.695312 C 10.496094 -0.238281 10.75 0 11.191406 0 Z M 16.761719 0 "/></g></g></g><g fill="#1b1f24" fill-opacity="1"><g transform="translate(195.574612, 272.279001)"><g><path d="M 8.832031 0 C 9.289062 0 9.527344 -0.238281 9.527344 -0.695312 L 9.527344 -8.964844 L 17.914062 -8.964844 C 18.355469 -8.964844 18.613281 -9.222656 18.613281 -9.664062 L 18.613281 -13.839844 C 18.613281 -14.296875 18.355469 -14.535156 17.914062 -14.535156 L 9.527344 -14.535156 L 9.527344 -20.171875 L 19.511719 -20.171875 C 19.96875 -20.171875 20.207031 -20.410156 20.207031 -20.871094 L 20.207031 -25.386719 C 20.207031 -25.84375 19.96875 -26.082031 19.511719 -26.082031 L 3.277344 -26.082031 C 2.820312 -26.082031 2.582031 -25.84375 2.582031 -25.386719 L 2.582031 -0.695312 C 2.582031 -0.238281 2.820312 0 3.277344 0 Z M 8.832031 0 "/></g></g></g><g fill="#1b1f24" fill-opacity="1"><g transform="translate(223.329634, 272.279001)"><g><path d="M 8.832031 0 C 9.289062 0 9.527344 -0.238281 9.527344 -0.695312 L 9.527344 -25.386719 C 9.527344 -25.84375 9.289062 -26.082031 8.832031 -26.082031 L 3.277344 -26.082031 C 2.820312 -26.082031 2.582031 -25.84375 2.582031 -25.386719 L 2.582031 -0.695312 C 2.582031 -0.238281 2.820312 0 3.277344 0 Z M 8.832031 0 "/></g></g></g><g fill="#1b1f24" fill-opacity="1"><g transform="translate(241.730165, 272.279001)"><g><path d="M 8.625 0 C 9.085938 0 9.324219 -0.238281 9.324219 -0.695312 L 9.324219 -13.144531 L 23.757812 0 C 24.84375 1 25.625 0.558594 25.625 -0.628906 L 25.625 -25.386719 C 25.625 -25.84375 25.386719 -26.082031 24.929688 -26.082031 L 19.613281 -26.082031 C 19.15625 -26.082031 18.917969 -25.84375 18.917969 -25.386719 L 18.917969 -13.382812 L 4.3125 -26.253906 C 3.34375 -27.101562 2.613281 -26.675781 2.613281 -25.488281 L 2.613281 -0.695312 C 2.613281 -0.238281 2.851562 0 3.3125 0 Z M 8.625 0 "/></g></g></g><g fill="#1b1f24" fill-opacity="1"><g transform="translate(276.259151, 272.279001)"><g><path d="M 12.003906 0 C 21.90625 0 26.21875 -4.875 26.21875 -13.007812 C 26.21875 -21.277344 21.769531 -26.082031 12.003906 -26.082031 L 3.277344 -26.082031 C 2.820312 -26.082031 2.582031 -25.84375 2.582031 -25.386719 L 2.582031 -0.695312 C 2.582031 -0.238281 2.820312 0 3.277344 0 Z M 9.59375 -20.171875 L 12.039062 -20.171875 C 16.929688 -20.171875 19.273438 -17.625 19.273438 -13.109375 C 19.273438 -8.59375 16.929688 -5.910156 12.039062 -5.910156 L 9.59375 -5.910156 Z M 9.59375 -20.171875 "/></g></g></g><g clip-path="url(#0e01a585b6)"><path fill="#1b1f24" d="M 210.027344 181.058594 L 191.382812 191.765625 L 190.816406 192.089844 L 187.671875 193.898438 L 181.632812 197.363281 L 175.578125 200.84375 L 169.539062 197.363281 L 153.222656 188.003906 L 153.222656 148.4375 L 169.539062 139.078125 L 175.578125 135.609375 L 181.632812 139.078125 L 187.671875 142.542969 L 192.566406 145.355469 L 193.644531 145.976562 L 210.027344 155.382812 L 216.078125 151.914062 L 222.121094 148.4375 L 228.171875 144.96875 L 222.121094 141.503906 L 207.925781 133.351562 L 187.671875 121.71875 L 181.632812 125.1875 L 187.671875 128.664062 L 198.617188 134.945312 L 216.078125 144.96875 L 210.027344 148.4375 L 195.597656 140.148438 L 187.671875 135.609375 L 181.632812 132.132812 L 175.578125 128.664062 L 169.539062 132.132812 L 167.425781 133.351562 L 163.5 135.609375 L 147.183594 144.96875 L 147.183594 191.46875 L 163.5 200.832031 L 167.425781 203.101562 L 169.539062 204.308594 L 175.578125 207.777344 L 181.632812 204.308594 L 187.671875 200.84375 L 194.40625 196.96875 L 210.027344 188.003906 L 216.078125 191.46875 L 195.6875 203.179688 L 187.671875 207.777344 L 181.632812 211.253906 L 187.671875 214.71875 L 198.71875 208.386719 L 207.925781 203.101562 L 222.121094 194.949219 L 228.171875 191.46875 L 222.121094 188.003906 L 216.078125 184.527344 Z M 165.316406 159.199219 L 165.316406 155.382812 L 181.632812 146.019531 L 175.578125 142.542969 L 159.273438 151.914062 L 159.273438 165.21875 L 197.707031 165.21875 L 197.707031 171.222656 L 159.273438 171.222656 L 159.273438 184.527344 L 175.578125 193.898438 L 181.632812 190.421875 L 165.316406 181.058594 L 165.316406 177.242188 L 203.761719 177.242188 L 203.761719 159.199219 Z M 165.316406 159.199219 " fill-opacity="1" fill-rule="evenodd"/></g></svg>