<svg xmlns="http://www.w3.org/2000/svg" xmlns:xlink="http://www.w3.org/1999/xlink" width="500" zoomAndPan="magnify" viewBox="0 0 375 374.999991" height="500" preserveAspectRatio="xMidYMid meet" version="1.0"><defs><g/><clipPath id="5375c8df65"><path d="M 130.613281 97.503906 L 244.613281 97.503906 L 244.613281 228.753906 L 130.613281 228.753906 Z M 130.613281 97.503906 " clip-rule="nonzero"/></clipPath></defs><g fill="#1b1f24" fill-opacity="1"><g transform="translate(111.161321, 260.728987)"><g><path d="M 12.777344 0 C 13.078125 0 13.234375 -0.15625 13.234375 -0.457031 L 13.234375 -3.414062 C 13.234375 -3.714844 13.078125 -3.871094 12.777344 -3.871094 L 6.238281 -3.871094 L 6.238281 -5.871094 L 11.890625 -5.871094 C 12.191406 -5.871094 12.34375 -6.039062 12.34375 -6.328125 L 12.34375 -9.0625 C 12.34375 -9.363281 12.191406 -9.519531 11.890625 -9.519531 L 6.238281 -9.519531 L 6.238281 -13.210938 L 12.777344 -13.210938 C 13.078125 -13.210938 13.234375 -13.367188 13.234375 -13.667969 L 13.234375 -16.628906 C 13.234375 -16.925781 13.078125 -17.082031 12.777344 -17.082031 L 2.148438 -17.082031 C 1.847656 -17.082031 1.691406 -16.925781 1.691406 -16.628906 L 1.691406 -0.457031 C 1.691406 -0.15625 1.847656 0 2.148438 0 Z M 12.777344 0 "/></g></g></g><g fill="#1b1f24" fill-opacity="1"><g transform="translate(129.816225, 260.728987)"><g><path d="M 9.410156 -17.082031 C 9.0625 -17.785156 8.519531 -17.785156 8.175781 -17.082031 L 0.34375 -0.546875 C 0.199219 -0.222656 0.34375 0 0.679688 0 L 4.695312 0 C 4.9375 0 5.128906 -0.132812 5.214844 -0.367188 L 5.773438 -1.800781 L 11.8125 -1.800781 L 12.367188 -0.367188 C 12.457031 -0.132812 12.644531 0 12.890625 0 L 16.90625 0 C 17.238281 0 17.382812 -0.222656 17.238281 -0.546875 Z M 8.796875 -9.507812 L 10.476562 -5.214844 L 7.105469 -5.214844 Z M 8.796875 -9.507812 "/></g></g></g><g fill="#1b1f24" fill-opacity="1"><g transform="translate(151.539678, 260.728987)"><g><path d="M 6.972656 0.457031 C 10.210938 0.457031 13.667969 -0.800781 13.667969 -4.78125 C 13.667969 -7.953125 11.457031 -9.320312 9.429688 -10.253906 C 7.40625 -11.1875 5.804688 -11.6875 5.804688 -12.710938 C 5.804688 -13.480469 6.5625 -13.734375 7.605469 -13.734375 C 8.628906 -13.734375 9.933594 -13.480469 11.042969 -13.101562 C 11.320312 -13 11.523438 -13.125 11.609375 -13.390625 L 12.433594 -16.195312 C 12.523438 -16.492188 12.433594 -16.671875 12.144531 -16.761719 C 10.589844 -17.238281 8.765625 -17.539062 7.453125 -17.539062 C 4.257812 -17.539062 1.179688 -16.125 1.179688 -12.390625 C 1.179688 -9.71875 2.890625 -8.386719 4.871094 -7.363281 C 6.875 -6.328125 9.019531 -5.714844 9.019531 -4.582031 C 9.019531 -3.714844 8.175781 -3.390625 6.996094 -3.390625 C 5.761719 -3.390625 4.125 -3.738281 2.667969 -4.214844 C 2.390625 -4.304688 2.191406 -4.238281 2.089844 -3.9375 L 1.113281 -0.957031 C 1.023438 -0.65625 1.132812 -0.476562 1.433594 -0.390625 C 3.503906 0.199219 5.28125 0.457031 6.972656 0.457031 Z M 6.972656 0.457031 "/></g></g></g><g fill="#1b1f24" fill-opacity="1"><g transform="translate(170.26129, 260.728987)"><g><path d="M 10.976562 0 C 11.277344 0 11.433594 -0.15625 11.433594 -0.457031 L 11.433594 -6.539062 L 18.085938 -16.539062 C 18.296875 -16.828125 18.152344 -17.082031 17.785156 -17.082031 L 13.367188 -17.082031 C 13.125 -17.082031 12.933594 -16.972656 12.824219 -16.761719 L 9.175781 -10.632812 L 5.582031 -16.761719 C 5.472656 -16.972656 5.28125 -17.082031 5.039062 -17.082031 L 0.613281 -17.082031 C 0.253906 -17.082031 0.109375 -16.828125 0.324219 -16.539062 L 6.875 -6.539062 L 6.875 -0.457031 C 6.875 -0.15625 7.039062 0 7.328125 0 Z M 10.976562 0 "/></g></g></g><g fill="#1b1f24" fill-opacity="1"><g transform="translate(192.785236, 260.728987)"><g><path d="M 5.785156 0 C 6.082031 0 6.238281 -0.15625 6.238281 -0.457031 L 6.238281 -5.871094 L 11.734375 -5.871094 C 12.023438 -5.871094 12.191406 -6.039062 12.191406 -6.328125 L 12.191406 -9.0625 C 12.191406 -9.363281 12.023438 -9.519531 11.734375 -9.519531 L 6.238281 -9.519531 L 6.238281 -13.210938 L 12.777344 -13.210938 C 13.078125 -13.210938 13.234375 -13.367188 13.234375 -13.667969 L 13.234375 -16.628906 C 13.234375 -16.925781 13.078125 -17.082031 12.777344 -17.082031 L 2.148438 -17.082031 C 1.847656 -17.082031 1.691406 -16.925781 1.691406 -16.628906 L 1.691406 -0.457031 C 1.691406 -0.15625 1.847656 0 2.148438 0 Z M 5.785156 0 "/></g></g></g><g fill="#1b1f24" fill-opacity="1"><g transform="translate(210.962057, 260.728987)"><g><path d="M 5.785156 0 C 6.082031 0 6.238281 -0.15625 6.238281 -0.457031 L 6.238281 -16.628906 C 6.238281 -16.925781 6.082031 -17.082031 5.785156 -17.082031 L 2.148438 -17.082031 C 1.847656 -17.082031 1.691406 -16.925781 1.691406 -16.628906 L 1.691406 -0.457031 C 1.691406 -0.15625 1.847656 0 2.148438 0 Z M 5.785156 0 "/></g></g></g><g fill="#1b1f24" fill-opacity="1"><g transform="translate(223.012914, 260.728987)"><g><path d="M 5.648438 0 C 5.949219 0 6.105469 -0.15625 6.105469 -0.457031 L 6.105469 -8.609375 L 15.558594 0 C 16.269531 0.65625 16.78125 0.367188 16.78125 -0.410156 L 16.78125 -16.628906 C 16.78125 -16.925781 16.628906 -17.082031 16.328125 -17.082031 L 12.847656 -17.082031 C 12.546875 -17.082031 12.390625 -16.925781 12.390625 -16.628906 L 12.390625 -8.765625 L 2.824219 -17.195312 C 2.191406 -17.75 1.710938 -17.472656 1.710938 -16.695312 L 1.710938 -0.457031 C 1.710938 -0.15625 1.867188 0 2.167969 0 Z M 5.648438 0 "/></g></g></g><g fill="#1b1f24" fill-opacity="1"><g transform="translate(245.625798, 260.728987)"><g><path d="M 7.863281 0 C 14.347656 0 17.171875 -3.191406 17.171875 -8.519531 C 17.171875 -13.9375 14.257812 -17.082031 7.863281 -17.082031 L 2.148438 -17.082031 C 1.847656 -17.082031 1.691406 -16.925781 1.691406 -16.628906 L 1.691406 -0.457031 C 1.691406 -0.15625 1.847656 0 2.148438 0 Z M 6.285156 -13.210938 L 7.886719 -13.210938 C 11.089844 -13.210938 12.625 -11.542969 12.625 -8.585938 C 12.625 -5.628906 11.089844 -3.871094 7.886719 -3.871094 L 6.285156 -3.871094 Z M 6.285156 -13.210938 "/></g></g></g><g clip-path="url(#5375c8df65)"><path fill="#1b1f24" d="M 219.070312 181.246094 L 192.828125 196.355469 L 192.03125 196.816406 L 187.605469 199.367188 L 179.101562 204.257812 L 170.585938 209.167969 L 162.082031 204.257812 L 139.121094 191.046875 L 139.121094 135.207031 L 162.082031 121.996094 L 170.585938 117.105469 L 179.101562 121.996094 L 187.605469 126.890625 L 194.492188 130.855469 L 196.007812 131.734375 L 219.070312 145.007812 L 227.585938 140.117188 L 236.089844 135.207031 L 244.605469 130.316406 L 236.089844 125.421875 L 216.113281 113.917969 L 187.605469 97.503906 L 179.101562 102.394531 L 187.605469 107.304688 L 203.007812 116.164062 L 227.585938 130.316406 L 219.070312 135.207031 L 198.757812 123.511719 L 187.605469 117.105469 L 179.101562 112.195312 L 170.585938 107.304688 L 162.082031 112.195312 L 159.109375 113.917969 L 153.582031 117.105469 L 130.617188 130.316406 L 130.617188 195.941406 L 153.582031 209.152344 L 159.109375 212.355469 L 162.082031 214.058594 L 170.585938 218.953125 L 179.101562 214.058594 L 187.605469 209.167969 L 197.082031 203.699219 L 219.070312 191.046875 L 227.585938 195.941406 L 198.886719 212.464844 L 187.605469 218.953125 L 179.101562 223.859375 L 187.605469 228.753906 L 203.152344 219.8125 L 216.113281 212.355469 L 236.089844 200.847656 L 244.605469 195.941406 L 236.089844 191.046875 L 227.585938 186.140625 Z M 156.136719 150.394531 L 156.136719 145.007812 L 179.101562 131.796875 L 170.585938 126.890625 L 147.636719 140.117188 L 147.636719 158.886719 L 201.730469 158.886719 L 201.730469 167.367188 L 147.636719 167.367188 L 147.636719 186.140625 L 170.585938 199.367188 L 179.101562 194.457031 L 156.136719 181.246094 L 156.136719 175.859375 L 210.246094 175.859375 L 210.246094 150.394531 Z M 156.136719 150.394531 " fill-opacity="1" fill-rule="evenodd"/></g></svg>